<svg width="40" height="40" viewBox="0 0 40 40" fill="none" xmlns="http://www.w3.org/2000/svg">
<g clip-path="url(#clip0_3_365)">
<path fill-rule="evenodd" clip-rule="evenodd" d="M27.8456 13.5944C27.8456 13.9763 27.6938 14.3426 27.4238 14.6127C27.1537 14.8827 26.7875 15.0344 26.4056 15.0344C26.0237 15.0344 25.6574 14.8827 25.3873 14.6127C25.1173 14.3426 24.9656 13.9763 24.9656 13.5944C24.9656 13.2125 25.1173 12.8463 25.3873 12.5762C25.6574 12.3062 26.0237 12.1544 26.4056 12.1544C26.7875 12.1544 27.1537 12.3062 27.4238 12.5762C27.6938 12.8463 27.8456 13.2125 27.8456 13.5944V13.5944ZM20 23.9999C17.7909 23.9999 16.0001 22.2093 16.0001 20C16.0001 17.7907 17.7909 16.0001 20 16.0001C22.2091 16.0001 23.9999 17.7909 23.9999 20C23.9999 22.2091 22.2091 23.9999 20 23.9999ZM20 13.8378C16.5969 13.8378 13.8378 16.5969 13.8378 20C13.8378 23.4031 16.5969 26.1622 20 26.1622C23.4031 26.1622 26.1622 23.4031 26.1622 20C26.1622 16.5969 23.4031 13.8378 20 13.8378V13.8378ZM20 10.1622L24.8488 10.2322C26.0188 10.2856 26.6544 10.481 27.077 10.6454C27.6371 10.8629 28.037 11.1232 28.457 11.5432C28.877 11.9632 29.1371 12.3626 29.3547 12.9232C29.519 13.346 29.7148 13.9814 29.768 15.1514C29.8258 16.4171 29.8379 16.7964 29.8379 20.0006L29.768 24.8493C29.7146 26.0193 29.5192 26.6549 29.3547 27.0776C29.1372 27.6376 28.877 28.0376 28.457 28.4576C28.037 28.8776 27.6376 29.1376 27.077 29.3553C26.6542 29.5196 26.0188 29.7153 24.8488 29.7686C23.5835 29.8263 23.204 29.8385 20 29.8385C16.796 29.8385 16.4161 29.8263 15.1509 29.7686C13.9809 29.7151 13.3452 29.5197 12.9226 29.3553C12.3626 29.1378 11.9626 28.8776 11.5426 28.4576C11.1226 28.0376 10.8626 27.6382 10.6449 27.0776C10.4806 26.6548 10.2849 26.0193 10.2316 24.8493C10.1739 23.5837 10.1617 23.2044 10.1617 20.0006L10.2316 15.1514C10.2851 13.9814 10.4804 13.3458 10.6449 12.9232C10.8624 12.3631 11.1226 11.9632 11.5426 11.5432C11.9626 11.1232 12.362 10.8631 12.9226 10.6454C13.3454 10.4812 13.9809 10.2854 15.1509 10.2322C16.4165 10.1744 16.7958 10.1622 20 10.1622V10.1622ZM20 8C16.7413 8 16.3325 8.01388 15.0524 8.07219C13.775 8.1305 12.9027 8.33337 12.1396 8.63C11.3502 8.93656 10.6812 9.347 10.0141 10.0141C9.347 10.6812 8.93656 11.3506 8.63 12.1396C8.33337 12.9031 8.1305 13.775 8.07219 15.0524C8.01388 16.3325 8 16.7413 8 20L8.07219 24.9476C8.13031 26.2248 8.33337 27.0971 8.63 27.8604C8.93656 28.6497 9.347 29.3188 10.0141 29.9859C10.6812 30.653 11.3504 31.0632 12.1396 31.37C12.9027 31.6666 13.7752 31.8695 15.0524 31.9278C16.3323 31.9859 16.7411 32 20 32C23.2589 32 23.6675 31.9861 24.9476 31.9278C26.2248 31.8697 27.0971 31.6666 27.8604 31.37C28.6497 31.0632 29.3188 30.653 29.9859 29.9859C30.653 29.3188 31.0632 28.6496 31.37 27.8604C31.6666 27.0972 31.8695 26.2248 31.9278 24.9476C31.9859 23.6677 32 23.2589 32 20L31.9278 15.0524C31.8697 13.7752 31.6666 12.9029 31.37 12.1396C31.0632 11.3502 30.653 10.6812 29.9859 10.0141C29.3188 9.347 28.6496 8.93675 27.8604 8.63C27.0969 8.33337 26.225 8.1305 24.9476 8.07219C23.6675 8.01388 23.2587 8 20 8Z" fill="url(#paint0_radial_3_365)"/>
</g>
<defs>
<radialGradient id="paint0_radial_3_365" cx="0" cy="0" r="1" gradientUnits="userSpaceOnUse" gradientTransform="translate(11.5833 32.0832) scale(30.666)">
<stop stop-color="#FFB140"/>
<stop offset="0.256" stop-color="#FF5445"/>
<stop offset="0.599" stop-color="#FC2B82"/>
<stop offset="1" stop-color="#8E40B7"/>
</radialGradient>
<clipPath id="clip0_3_365">
<rect width="24" height="24" fill="white" transform="translate(8 8)"/>
</clipPath>
</defs>
</svg>
