<svg width="36" height="36" viewBox="0 0 36 36" fill="none" xmlns="http://www.w3.org/2000/svg">
<path d="M8.34659 28H1.64347V9.09091H8.40199C10.304 9.09091 11.9413 9.46946 13.3139 10.2266C14.6866 10.9775 15.7422 12.0578 16.4808 13.4673C17.2256 14.8769 17.598 16.5634 17.598 18.527C17.598 20.4967 17.2256 22.1894 16.4808 23.6051C15.7422 25.0208 14.6804 26.1072 13.2955 26.8643C11.9167 27.6214 10.267 28 8.34659 28ZM5.64134 24.5746H8.1804C9.36222 24.5746 10.3563 24.3653 11.1626 23.9467C11.9751 23.522 12.5845 22.8665 12.9908 21.9801C13.4032 21.0876 13.6094 19.9366 13.6094 18.527C13.6094 17.1297 13.4032 15.9879 12.9908 15.1016C12.5845 14.2152 11.9782 13.5627 11.1719 13.1442C10.3655 12.7256 9.37145 12.5163 8.18963 12.5163H5.64134V24.5746Z" fill="white"/>
<path d="M19.6435 28V9.09091H27.1037C28.5317 9.09091 29.7505 9.34635 30.7599 9.85724C31.7756 10.362 32.5481 11.0791 33.0774 12.0085C33.6129 12.9318 33.8807 14.0182 33.8807 15.2678C33.8807 16.5234 33.6098 17.6037 33.0682 18.5085C32.5265 19.4072 31.7417 20.0966 30.7138 20.5767C29.692 21.0568 28.4548 21.2969 27.0021 21.2969H22.0071V18.0838H26.3558C27.1191 18.0838 27.7531 17.9792 28.2578 17.7699C28.7625 17.5606 29.138 17.2467 29.3842 16.8281C29.6366 16.4096 29.7628 15.8894 29.7628 15.2678C29.7628 14.6399 29.6366 14.1106 29.3842 13.6797C29.138 13.2488 28.7595 12.9226 28.2486 12.701C27.7438 12.4732 27.1068 12.3594 26.3374 12.3594H23.6413V28H19.6435ZM29.8551 19.3949L34.5547 28H30.1413L25.5433 19.3949H29.8551Z" fill="white"/>
</svg>
